<?xml version="1.0" encoding="utf-8"?><svg version="1.1" id="Layer_1" xmlns="http://www.w3.org/2000/svg" xmlns:xlink="http://www.w3.org/1999/xlink" x="0px" y="0px" viewBox="0 0 122.88 60.05" style="enable-background:new 0 0 122.88 60.05" xml:space="preserve"><style type="text/css"><![CDATA[
	.st0{fill-rule:evenodd;clip-rule:evenodd;fill:#0E8635;}
	.st1{fill-rule:evenodd;clip-rule:evenodd;fill:#E97208;}
	.st2{fill:#F07A25;}
	.st3{fill-rule:evenodd;clip-rule:evenodd;fill:#66686C;}
	.st4{fill:#0C8D48;}
]]></style><g><path class="st2" d="M111.45,19.26l-5.17,4.81l-0.17-0.13c0.59-2.19,1.18-4.39,1.78-6.58c1.5-5.45,3-10.89,4.51-16.34 c0-0.02,0-0.04,0-0.05c0-0.27,0.14-0.52,0.38-0.65c0.36-0.06,0.35,0.35,0.48,0.58c0.77,1.42,1.35,2.93,2.25,4.28 c0.85,2.06,1.84,4.11,2.91,6.06c0.13,0.2,0.21,0.43,0.21,0.67c0,0.41-0.21,0.8-0.56,1.02C115.82,15.02,113.64,17.15,111.45,19.26 L111.45,19.26z"/><path class="st4" d="M111.45,19.26c2.2-2.11,4.38-4.24,6.61-6.32c0.35-0.22,0.56-0.61,0.56-1.02c0-0.24-0.07-0.48-0.21-0.67 c-1.08-1.95-2.06-4-2.91-6.06l1.54-5.17c0.64,1.23,1.17,2.24,1.68,3.26c1.29,2.57,2.55,5.16,3.89,7.71 c0.18,0.25,0.27,0.55,0.27,0.86c0,0.51-0.26,0.99-0.7,1.26c-3.66,3.39-7.25,6.86-10.86,10.3c-0.23,0.3-0.54,0.53-0.9,0.65 C110.88,22.49,111.23,20.88,111.45,19.26L111.45,19.26L111.45,19.26z"/><path class="st3" d="M30.37,12.17c0.76,0.35,1.25,1.11,1.25,1.94c0,0.34-0.08,0.68-0.24,0.98c-0.6,1.95-1.09,3.92-1.63,5.89 c-0.15,1.86-1.71,3.29-3.57,3.29c-0.21,0-0.42-0.02-0.63-0.06c-8.27,0-16.53,0.01-24.8,0.02c-0.65,0-0.89-0.06-0.68-0.79 C2.2,15.9,4.3,8.35,6.39,0.8C6.44,0.35,6.82,0,7.27,0c0.04,0,0.09,0,0.13,0.01c8.51,0.02,17.03,0.01,25.54,0.03 C33.06,0.02,33.18,0,33.3,0c0.95,0,1.71,0.77,1.71,1.71c0,0.24-0.05,0.47-0.15,0.69c-0.64,2.52-1.34,5.02-2.07,7.52 C32.4,11.02,31.5,11.86,30.37,12.17L30.37,12.17z M85.39,59.94h-4.84l6.72-24.26h4.83L85.39,59.94L85.39,59.94z M45.21,58.42 c-0.26,0.96-1.15,1.63-2.14,1.63H18.15c-0.68,0-1.19-0.23-1.52-0.69c-0.33-0.46-0.41-1.04-0.21-1.72l6.08-21.9l4.84,0l-5.43,19.56 h19.34l5.43-19.56l4.83,0L45.21,58.42L45.21,58.42L45.21,58.42z M82.88,36.44c-0.33-0.46-0.85-0.69-1.55-0.69l-26.57,0l-1.31,4.76 h24.17l-1.41,5.08H56.87v-0.01h-4.83l-4.01,14.48h4.83l2.69-9.71h21.73c0.68,0,1.32-0.23,1.92-0.69s0.99-1.04,1.18-1.72l2.69-9.71 C83.27,37.49,83.21,36.9,82.88,36.44L82.88,36.44L82.88,36.44z M50.48,9.77c2.78,0,5.56-0.05,8.34,0.03 C58.88,9.8,58.94,9.81,59,9.81c0.7,0,1.27-0.54,1.32-1.23c0.65-2.48,1.35-4.95,1.96-7.44C62.3,0.5,62.82,0,63.45,0 c0.09,0,0.17,0.01,0.26,0.03c0.46,0.03,0.92,0.05,1.39,0.05c0.45,0,0.91-0.02,1.36-0.05c0.74-0.04,0.91,0.18,0.7,0.91 c-1.05,3.72-2.05,7.46-3.07,11.18c-0.98,3.59-1.98,7.18-2.93,10.78c-0.02,0.75-0.63,1.35-1.38,1.35c-0.11,0-0.22-0.01-0.33-0.04 c-0.46-0.04-0.92-0.06-1.38-0.06c-0.42,0-0.84,0.02-1.26,0.05c-0.71,0.03-0.82-0.2-0.63-0.86c0.76-2.6,1.44-5.22,2.19-7.82 c0.22-0.76,0.12-1.07-0.78-1.06c-5.66,0.04-11.33,0.04-16.99,0.01c-0.06-0.01-0.12-0.01-0.18-0.01c-0.62,0-1.13,0.48-1.16,1.1 c-0.66,2.62-1.43,5.22-2.12,7.83c-0.04,0.48-0.44,0.84-0.92,0.84c-0.06,0-0.12-0.01-0.18-0.02c-0.48-0.03-0.98-0.04-1.46-0.04 c-0.5,0-1,0.02-1.49,0.05c-1.03,0.07-0.86-0.46-0.68-1.1c1.11-4.03,2.22-8.07,3.32-12.1c0.93-3.39,1.86-6.78,2.77-10.17 c0.03-0.46,0.41-0.82,0.87-0.82c0.04,0,0.09,0,0.13,0.01c1.05,0.05,2.11,0.05,3.16,0c0.73-0.03,0.81,0.24,0.63,0.88 c-0.75,2.67-1.44,5.36-2.21,8.03c-0.21,0.71-0.03,0.85,0.64,0.84C44.64,9.75,47.56,9.77,50.48,9.77L50.48,9.77z M73,0.11 c0.35,0,0.7,0,1.05,0c1.4,0,1.41,0,1.05,1.29c-1.96,7.1-3.92,14.21-5.89,21.31c-0.44,1.59-0.46,1.59-2.09,1.59 c-0.77,0-1.55-0.02-2.32,0.01c-0.69,0.03-0.83-0.2-0.64-0.88c1.87-6.66,3.71-13.33,5.55-20c0.23-0.7,0.42-1.41,0.56-2.13 c0-0.02,0-0.03,0-0.05c0-0.67,0.54-1.2,1.21-1.2c0.12,0,0.25,0.02,0.36,0.06c0.21,0.02,0.43,0.02,0.65,0.02 C72.65,0.12,72.83,0.12,73,0.11L73,0.11L73,0.11z M100.08,13.09c-0.81,0.72-1.62,1.42-2.41,2.15c-3.03,2.78-6.04,5.58-9.06,8.38 c-0.5,0.47-0.76,0.55-1.15-0.14c-2.23-3.91-4.5-7.79-6.76-11.68c-0.07-0.1-0.16-0.2-0.25-0.28c-0.34,0.43-0.56,0.96-0.61,1.51 c-0.95,3.38-1.87,6.77-2.77,10.17c-0.02,0.58-0.49,1.03-1.07,1.03c-0.07,0-0.14-0.01-0.21-0.02c-1.01-0.08-2.04-0.03-3.06-0.01 c-0.47,0.01-0.73-0.06-0.56-0.66c2.12-7.65,4.23-15.31,6.33-22.97c0.05-0.08,0.11-0.16,0.18-0.23c0.41,0.37,0.74,0.82,0.97,1.32 c2.86,4.76,5.71,9.52,8.56,14.29c0.64,1.07,0.62,1.05,1.58,0.23c5.16-4.4,10.32-8.8,15.5-13.18c1.04-0.88,2.07-1.77,3.2-2.73 c0.02,0.12,0.03,0.25,0.03,0.38c0,0.39-0.1,0.78-0.28,1.12c-1.96,7.19-3.95,14.37-5.9,21.55c-0.03,0.51-0.46,0.91-0.97,0.91 c-0.06,0-0.12-0.01-0.17-0.02c-0.5-0.03-1.01-0.04-1.51-0.04c-0.48,0-0.97,0.01-1.45,0.04c-0.84,0.05-0.91-0.26-0.7-0.99 c0.89-3.14,1.74-6.3,2.6-9.45c0.05-0.09,0.08-0.19,0.08-0.29C100.22,13.33,100.17,13.19,100.08,13.09L100.08,13.09L100.08,13.09z M11.05,4.76c5.39,0.07,10.76-0.01,16.14-0.01c0.95,0,1.72,0.77,1.72,1.72c0,0.24-0.05,0.48-0.15,0.71c-0.27,1.5-1.58,2.6-3.11,2.6 C20.33,9.77,15,9.77,9.67,9.8c-0.88,0-0.91-0.35-0.69-1.03c0.35-1,0.64-2.01,0.86-3.04c0.01-0.55,0.46-0.98,1.01-0.98 C10.92,4.74,10.98,4.75,11.05,4.76L11.05,4.76z M8.11,14.47c5.35,0,10.71,0.01,16.07,0.03c1.84,0.01,2.57,1.7,1.49,3.44 c-0.58,0.98-1.63,1.58-2.77,1.58c-5.25,0-10.49-0.06-15.74,0.01c-0.81,0.01-1.19-0.1-0.86-1.04c0.37-1.06,0.63-2.16,0.9-3.24 C7.27,14.8,7.66,14.47,8.11,14.47L8.11,14.47z"/><polygon class="st0" points="100.46,35.72 106.57,47.88 93.71,60.04 95.24,54.53 102.27,47.88 98.93,41.23 100.46,35.72"/><polygon class="st1" points="96.16,35.72 102.27,47.88 89.41,60.04 96.16,35.72"/></g></svg>