<svg xmlns="http://www.w3.org/2000/svg"  viewBox="0 0 48 48" width="48px" height="48px"><defs><linearGradient id="sT4F6bvlidZvo2wcmTTbBa" x1="18.51" x2="37.67" y1="20.45" y2="20.45" data-name="Безымянный градиент 16" gradientUnits="userSpaceOnUse"><stop offset="0" stop-color="#f44f5a"/><stop offset=".44" stop-color="#ee3d4a"/><stop offset="1" stop-color="#e52030"/></linearGradient><linearGradient id="sT4F6bvlidZvo2wcmTTbBb" x1="5.62" x2="25.05" y1="27.94" y2="27.94" data-name="Безымянный градиент 11" gradientUnits="userSpaceOnUse"><stop offset="0" stop-color="#fede00"/><stop offset="1" stop-color="#ffd000"/></linearGradient><linearGradient id="sT4F6bvlidZvo2wcmTTbBc" x1="44.66" x2="5.36" y1="19.48" y2="19.48" data-name="Безымянный градиент 10" gradientUnits="userSpaceOnUse"><stop offset="0" stop-color="#21ad64"/><stop offset="1" stop-color="#088242"/></linearGradient><linearGradient id="sT4F6bvlidZvo2wcmTTbBd" x1="30.66" x2="4.23" y1="26.72" y2="26.72" gradientUnits="userSpaceOnUse"><stop offset=".11" stop-color="#0d62ab"/><stop offset="1" stop-color="#007ad9"/></linearGradient></defs><path fill="url(#sT4F6bvlidZvo2wcmTTbBa)" d="m44.36,21.36c-.23.42-5.54,11-5.54,11-.78,1.44-2.56,1.97-3.99,1.18l-10.4-5.51c-1.45-.8-2.24-2.58-1.43-4.03l9-17s9.38,5.22,9.84,5.47c3.15,1.74,4.27,5.72,2.52,8.89Z"/><path fill="url(#sT4F6bvlidZvo2wcmTTbBb)" d="m34.57,21.58s-9.84,17.28-9.99,17.56c-1.75,3.15-5.73,4.29-8.88,2.54-.26-.15-.51-.31-.75-.49,0,0,0,0,0,0-2.23-1.67-3.39-4.68-2.29-7.21,2.25-5.19,12.44-20.58,12.44-20.58l8.35,4.43c1.35.73,1.85,2.41,1.13,3.76Z"/><path fill="url(#sT4F6bvlidZvo2wcmTTbBc)" d="m31.45,13.67c2.08-2.52,6.57-3.28,9.55-1.67l-5.89-3.32-2.75-1.5c-2.3-1.25-5.02-1.68-7.53-.93s-4.55,2.35-5.85,4.73l-7.92,15.12c-.79,1.44-.27,3.24,1.16,4.04l4.45,2.57c1.46.8,3.29.26,4.07-1.21,0,0,9.71-16.25,9.95-16.7.22-.4.48-.78.76-1.12h0Z"/><path fill="url(#sT4F6bvlidZvo2wcmTTbBd)" d="m12.45,35.02c-.32,2.67.8,5.3,3.25,6.66l-8.22-4.52c-2.14-1.19-3.85-3.11-4.52-5.47s-.43-4.77.79-7l6.72-11.47c.74-1.35,2.42-1.84,3.77-1.11l6.06,3.29c1.37.75,1.86,2.46,1.09,3.82l-8.36,14.07c-.31.53-.52,1.12-.59,1.73Z"/></svg>