<?xml version="1.0" encoding="UTF-8"?>
<!DOCTYPE svg PUBLIC "-//W3C//DTD SVG 1.1//EN" "http://www.w3.org/Graphics/SVG/1.1/DTD/svg11.dtd">
<!-- Creator: CorelDRAW -->
<svg xmlns="http://www.w3.org/2000/svg" xml:space="preserve" width="2048px" height="2048px" style="shape-rendering:geometricPrecision; text-rendering:geometricPrecision; image-rendering:optimizeQuality; fill-rule:evenodd; clip-rule:evenodd"
viewBox="0 0 2048 2048"
 xmlns:xlink="http://www.w3.org/1999/xlink">
 <defs>
  <style type="text/css">
   <![CDATA[
    .fil3 {fill:none}
    .fil0 {fill:#DADADA}
    .fil1 {fill:#717171;fill-rule:nonzero}
    .fil2 {fill:#919191;fill-rule:nonzero}
   ]]>
  </style>
 </defs>
 <g id="Layer_x0020_1">
  <metadata id="CorelCorpID_0Corel-Layer"/>
  <ellipse class="fil0" cx="1024.37" cy="1023.99" rx="747.56" ry="749.616"/>
  <path class="fil1" d="M300.864 842.388c10.1882,-40.7469 23.8477,-80.6056 40.9146,-119.196l8.45906 -19.1256 20.791 0 256.812 0 38.1213 0 -6.62126 37.5012c-6.77953,38.4048 -11.8807,76.3749 -15.4961,113.799 -3.70512,38.3327 -6.013,76.7445 -7.11024,115.025l-0.891733 31.1256 -30.9839 0 -292.197 0 -34.4386 0 2.56299 -34.376c3.1441,-42.1618 9.85867,-83.8737 20.0776,-124.754z"/>
  <path class="fil2" d="M1078.49 704.066l229.703 0 26.276 0 5.09882 25.8756c7.54725,38.3055 13.4303,77.2548 17.7945,116.573 4.4504,40.1067 7.26969,80.8855 8.61615,122.002l1.08071 33.0012 -32.9563 0 -255.613 0 -32.0008 0 0 -32.0008 0 -233.45 0 -32.0008 32.0008 0z"/>
  <path class="fil1" d="M560.061 440.483c59.8182,-47.5831 126.964,-85.9796 199.214,-113.433l97.2615 -36.9567 -59.8867 85.2072c-24.8575,35.3681 -45.9579,74.5701 -63.7619,115.174 -20.8169,47.4697 -37.2107,96.9485 -49.9004,144.607l-6.3567 23.876 -24.5185 0 -221.054 0 -59.8689 0 33.3685 -49.7504c43.167,-64.3583 95.739,-121.185 155.503,-168.724z"/>
  <path class="fil1" d="M1487.95 1607.52c-59.8323,47.5937 -126.985,85.9985 -199.262,113.45l-97.2804 36.9461 59.9056 -85.1965c24.9154,-35.4355 46.0666,-74.6871 63.9107,-115.338 20.8288,-47.4532 37.2402,-96.9095 49.937,-144.588l6.35788 -23.876 24.5173 0 221.041 0 59.8808 0 -33.3803 49.7504c-43.2154,64.4079 -95.8253,121.282 -155.628,168.853z"/>
  <path class="fil1" d="M431.038 1388.92l221.075 0 24.5162 0 6.35906 23.876c12.7016,47.6847 29.1177,97.1516 49.9548,144.612 17.8477,40.6512 39.0024,79.9005 63.9225,115.336l59.8819 85.1469 -97.2568 -36.8965c-72.3154,-27.4347 -139.511,-65.8359 -199.37,-113.447 -59.8052,-47.5689 -112.403,-104.445 -155.583,-168.877l-33.3402 -49.7504 59.8406 0z"/>
  <path class="fil1" d="M300.963 1205.72c-10.2236,-40.904 -16.9512,-82.6442 -20.1484,-124.86l-2.60315 -34.376 34.4788 0 292.168 0 30.9839 0 0.891733 31.1256c1.09724,38.2748 3.40512,76.6855 7.11024,115.016 3.61536,37.4233 8.71654,75.3934 15.4961,113.795l6.62245 37.5012 -38.1225 0 -256.805 0 -20.804 0 -8.44607 -19.1256c-17.0351,-38.5772 -30.6532,-78.3886 -40.8225,-119.075z"/>
  <path class="fil2" d="M1078.49 1046.48l255.613 0 32.9599 0 -1.08425 33.0012c-1.35,41.0953 -4.17048,81.8375 -8.61851,121.91 -4.36418,39.3343 -10.2508,78.3048 -17.7921,116.65l-5.09056 25.8756 -26.2843 0 -229.703 0 -32.0008 0 0 -32.0008 0 -233.436 0 -32.0008 32.0008 0z"/>
  <path class="fil1" d="M1617.1 658.958l-221.062 0 -24.5162 0 -6.35906 -23.876c-12.691,-47.6445 -29.0953,-97.0973 -49.9205,-144.547 -17.8264,-40.617 -38.954,-79.8331 -63.841,-115.227l-59.9245 -85.2201 97.2993 36.9697c72.2623,27.4559 139.435,65.8583 199.285,113.45 59.7733,47.5311 112.363,104.35 155.539,168.701l33.3792 49.7504 -59.8796 0z"/>
  <path class="fil1" d="M1404.18 855.369c-3.63071,-37.4185 -8.73544,-75.3886 -15.5162,-113.802l-6.62126 -37.5012 38.1213 0 256.97 0 20.8004 0 8.44961 19.1256c16.963,38.3977 30.5362,78.2008 40.7067,119.016 10.2248,41.0268 16.9264,82.8012 20.0988,124.934l2.5878 34.376 -34.4634 0 -292.054 0 -30.9437 0 -0.93189 -31.1256c-1.14567,-38.2607 -3.48307,-76.6713 -7.20473,-115.023z"/>
  <path class="fil1" d="M1677.12 1343.92l-256.963 0 -38.1225 0 6.62245 -37.5012c6.77953,-38.4012 11.8807,-76.3713 15.4961,-113.795 3.70512,-38.3303 6.013,-76.741 7.11024,-115.016l0.891733 -31.1256 30.9839 0 292.204 0 34.4233 0 -2.54764 34.2508c-3.13701,42.1748 -9.83032,83.889 -20.0291,124.787 -10.2012,40.9004 -23.824,80.778 -40.8189,119.274l-8.44371 19.1256 -20.8063 0z"/>
  <g id="_495637880">
   <g>
    <path id="_495650888" class="fil2" d="M1046.49 1726.63l0 -305.712 0 -32.0008 32.0008 0 202.954 0 43.089 0 -12.4642 41.2512c-19.1327,63.3189 -50.2689,144.084 -94.3418,210.473 -34.115,51.3874 -76.1776,94.3855 -126.986,115.489l-44.2512 18.3791 0 -47.8796z"/>
    <path id="_495626360" class="fil2" d="M1001.52 1420.92l0 305.561 0 47.9209 -44.2512 -18.4205c-50.7615,-21.1299 -92.8028,-64.1174 -126.913,-115.476 -44.0658,-66.3461 -75.2363,-147.059 -94.4079,-210.334l-12.4984 -41.2512 43.1233 0 202.947 0 32.0008 0 0 32.0008z"/>
   </g>
   <g>
    <path id="_495624944" class="fil2" d="M1217.7 407.312c44.0705,66.3579 75.2209,147.097 94.369,210.395l12.4784 41.2512 -43.1032 0 -202.954 0 -32.0008 0 0 -32.0008 0 -305.589 0 -47.8784 44.2512 18.378c50.7874,21.0933 92.843,64.0749 126.959,115.445z"/>
    <path id="_495632552" class="fil2" d="M1001.52 321.382l0 305.575 0 32.0008 -32.0008 0 -202.947 0 -42.9992 0 12.4996 -41.2512c19.2248,-63.4465 50.4012,-144.28 94.2946,-210.369 34.1103,-51.3603 76.1481,-94.3442 126.901,-115.456l44.2512 -18.4075 0 47.9079z"/>
   </g>
  </g>
  <path class="fil2" d="M969.524 1343.92l-229.538 0 -26.2713 0 -5.10355 -25.8756c-7.57796,-38.4272 -13.5118,-77.4875 -17.9197,-116.93 -4.46457,-39.9674 -7.30985,-80.6079 -8.66339,-121.63l-1.08898 -33.0012 32.9646 0 255.62 0 32.0008 0 0 32.0008 0 233.436 0 32.0008 -32.0008 0z"/>
  <path class="fil2" d="M690.695 846.77c4.40197,-39.4134 10.3299,-78.4442 17.9091,-116.828l5.11063 -25.8756 26.2642 0 229.545 0 32.0008 0 0 32.0008 0 233.45 0 32.0008 -32.0008 0 -255.62 0 -32.9646 0 1.08898 -33.0012c1.35473,-41.0504 4.19882,-81.7371 8.66694,-121.747z"/>
  <rect class="fil3" x="255.999" y="255.992" width="1536" height="1536"/>
  <rect class="fil3" width="2048" height="2048"/>
 </g>
</svg>
